HIERARCHY
ROOT Hips
{
	OFFSET 0.000000 0.000000 0.000000
	CHANNELS 6 Xposition Yposition Zposition Xrotation Yrotation Zrotation
	JOINT Chest
	{
		OFFSET 0.000000 1.151646 10.364816
		CHANNELS 3 Xrotation Yrotation Zrotation
		JOINT Chest2
		{
			OFFSET 0.000000 -0.000000 11.517722
			CHANNELS 3 Xrotation Yrotation Zrotation
			JOINT Chest3
			{
				OFFSET 0.000000 0.000996 10.515804
				CHANNELS 3 Xrotation Yrotation Zrotation
				JOINT Chest4
				{
					OFFSET 0.000000 0.000998 10.504063
					CHANNELS 3 Xrotation Yrotation Zrotation
					JOINT Neck
					{
						OFFSET 0.000000 -0.000001 14.700996
						CHANNELS 3 Xrotation Yrotation Zrotation
						JOINT Head
						{
							OFFSET 0.000000 -0.002144 9.779655
							CHANNELS 3 Xrotation Yrotation Zrotation
							End Site
							{
								OFFSET 0.000000 -0.000289 18.151802
							}
						}
					}
					JOINT RightCollar
					{
						OFFSET -3.200323 -0.000000 8.241253
						CHANNELS 3 Xrotation Yrotation Zrotation
						JOINT RightShoulder
						{
							OFFSET -14.963747 0.000000 0.000000
							CHANNELS 3 Xrotation Yrotation Zrotation
							JOINT RightElbow
							{
								OFFSET -31.975845 0.000000 0.000000
								CHANNELS 3 Xrotation Yrotation Zrotation
								JOINT RightWrist
								{
									OFFSET -26.149033 0.000000 0.000000
									CHANNELS 3 Xrotation Yrotation Zrotation
									End Site
									{
										OFFSET -19.551819 0.000000 0.000000
									}
								}
							}
						}
					}
					JOINT LeftCollar
					{
						OFFSET 3.200323 -0.000000 8.241253
						CHANNELS 3 Xrotation Yrotation Zrotation
						JOINT LeftShoulder
						{
							OFFSET 14.963747 0.000000 0.000000
							CHANNELS 3 Xrotation Yrotation Zrotation
							JOINT LeftElbow
							{
								OFFSET 31.975845 0.000000 0.000000
								CHANNELS 3 Xrotation Yrotation Zrotation
								JOINT LeftWrist
								{
									OFFSET 26.149033 0.000000 0.000000
									CHANNELS 3 Xrotation Yrotation Zrotation
									End Site
									{
										OFFSET 19.551819 0.000000 0.000000
									}
								}
							}
						}
					}
				}
			}
		}
	}
	JOINT RightHip
	{
		OFFSET -8.525852 0.000400 0.003604
		CHANNELS 3 Xrotation Yrotation Zrotation
		JOINT RightKnee
		{
			OFFSET 0.000000 0.000238 -44.087433
			CHANNELS 3 Xrotation Yrotation Zrotation
			JOINT RightAnkle
			{
				OFFSET 0.000000 0.000399 -43.085331
				CHANNELS 3 Xrotation Yrotation Zrotation
				JOINT RightToe
				{
					OFFSET 0.000000 -18.057957 -7.938347
					CHANNELS 3 Xrotation Yrotation Zrotation
					End Site
					{
						OFFSET 0.000000 -7.444336 -1.698112
					}
				}
			}
		}
	}
	JOINT LeftHip
	{
		OFFSET 8.525852 0.000142 0.001277
		CHANNELS 3 Xrotation Yrotation Zrotation
		JOINT LeftKnee
		{
			OFFSET 0.000000 0.000238 -44.087433
			CHANNELS 3 Xrotation Yrotation Zrotation
			JOINT LeftAnkle
			{
				OFFSET 0.000000 0.000399 -43.085323
				CHANNELS 3 Xrotation Yrotation Zrotation
				JOINT LeftToe
				{
					OFFSET 0.000000 -18.057957 -7.938347
					CHANNELS 3 Xrotation Yrotation Zrotation
					End Site
					{
						OFFSET 0.000000 -7.444336 -1.698112
					}
				}
			}
		}
	}
}
MOTION
Frames: 12
Frame Time: 0.004184
-216.425095 -396.991272 96.833939 3.163398 -1.223060 9.529948 1.482801 0.936644 -0.304017 -5.168104 0.428513 -0.089080 0.652328 0.428522 -0.089036 6.325950 0.313085 -0.098640 16.127841 -1.072121 0.267515 -6.079766 -2.048693 0.104016 -3.260325 -7.969505 1.428931 18.957388 -74.688979 27.000513 23.658723 -4.279245 6.772508 7.701352 2.575774 -2.829191 -2.866285 7.727743 -0.226816 35.055314 71.625154 -44.750006 28.651544 0.314643 -9.659083 1.169631 -2.721110 6.579517 -5.543822 3.482429 -2.804615 10.072467 -0.257050 0.348380 -8.098248 -2.096693 2.377017 0.000003 -0.000000 0.000001 -0.384106 1.523380 2.399182 1.985434 0.339424 -0.003124 -8.868791 -1.225255 -9.529702 0.000001 -0.000000 -0.000000 
-216.434845 -397.000610 96.831573 3.159541 -1.198252 9.524793 1.478651 0.920620 -0.299258 -5.169924 0.421202 -0.087760 0.650509 0.421211 -0.087716 6.324585 0.307728 -0.097108 16.138929 -1.074156 0.267082 -6.059191 -2.052232 0.102668 -3.248474 -7.957432 1.427325 18.994862 -74.696998 27.039295 23.661777 -4.279621 6.772952 7.703344 2.575328 -2.827702 -2.858885 7.731525 -0.225668 35.047698 71.629095 -44.746632 28.648928 0.315323 -9.660328 1.169196 -2.720148 6.577832 -5.547724 3.447526 -2.794357 10.087888 -0.251361 0.317244 -8.105784 -2.103903 2.392936 -0.000001 -0.000000 0.000002 -0.373056 1.472917 2.413801 1.975490 0.375294 -0.001370 -8.873374 -1.230993 -9.541426 -0.000002 -0.000000 -0.000000 
-216.444656 -397.009949 96.829193 3.155635 -1.172952 9.519784 1.474471 0.904298 -0.294459 -5.171755 0.413756 -0.086438 0.648678 0.413765 -0.086393 6.323211 0.302270 -0.095562 16.149880 -1.076214 0.266573 -6.038878 -2.055785 0.101169 -3.236528 -7.945249 1.425708 19.032532 -74.705133 27.078319 23.664845 -4.279986 6.773416 7.705396 2.575019 -2.826227 -2.851548 7.735260 -0.224646 35.040148 71.633200 -44.743388 28.646338 0.315905 -9.661359 1.168749 -2.719205 6.576189 -5.551620 3.412095 -2.783831 10.103239 -0.245700 0.285085 -8.113189 -2.111380 2.409283 0.000001 0.000000 -0.000002 -0.361841 1.421670 2.428921 1.965391 0.411717 0.001252 -8.879064 -1.236637 -9.555301 0.000005 -0.000000 -0.000000 
-216.454498 -397.019257 96.826813 3.151705 -1.147406 9.514851 1.470279 0.887824 -0.289642 -5.173593 0.406243 -0.085113 0.646840 0.406252 -0.085071 6.321831 0.296763 -0.094012 16.160754 -1.078285 0.266023 -6.018695 -2.059346 0.099594 -3.224532 -7.933013 1.424086 19.070300 -74.713329 27.117523 23.667913 -4.280349 6.773887 7.707484 2.574781 -2.824758 -2.844242 7.738977 -0.223683 35.032617 71.637387 -44.740184 28.643757 0.316436 -9.662284 1.168296 -2.718271 6.574572 -5.555510 3.376400 -2.773174 10.118564 -0.240060 0.252416 -8.120543 -2.118992 2.425841 0.000000 0.000000 0.000001 -0.350539 1.370032 2.444301 1.955219 0.448419 0.004312 -8.885311 -1.242229 -9.570251 0.000003 0.000000 -0.000000 
-216.464355 -397.028564 96.824417 3.147778 -1.121860 9.509916 1.466088 0.871351 -0.284825 -5.175429 0.398731 -0.083788 0.645001 0.398740 -0.083749 6.320451 0.291257 -0.092460 16.171639 -1.080356 0.265471 -5.998515 -2.062911 0.098017 -3.212536 -7.920777 1.422459 19.108137 -74.721518 27.156745 23.670984 -4.280710 6.774359 7.709562 2.574542 -2.823290 -2.836939 7.742693 -0.222722 35.025087 71.641567 -44.736981 28.641177 0.316970 -9.663204 1.167850 -2.717339 6.572954 -5.559399 3.340703 -2.762520 10.133886 -0.234429 0.219744 -8.127889 -2.126605 2.442399 0.000002 0.000001 -0.000001 -0.339225 1.318398 2.459698 1.945052 0.485122 0.007370 -8.891553 -1.247819 -9.585205 -0.000002 0.000000 -0.000000 
-216.474167 -397.037872 96.822037 3.143880 -1.096558 9.504913 1.461912 0.855026 -0.280035 -5.177262 0.391285 -0.082467 0.643170 0.391294 -0.082428 6.319077 0.285800 -0.090915 16.182581 -1.082418 0.264956 -5.978203 -2.066471 0.096511 -3.200588 -7.908597 1.420835 19.145924 -74.729632 27.195916 23.674045 -4.281076 6.774821 7.711612 2.574234 -2.821816 -2.829599 7.746427 -0.221703 35.017502 71.645665 -44.733709 28.638584 0.317553 -9.664234 1.167407 -2.716395 6.571311 -5.563282 3.305270 -2.752006 10.149242 -0.228798 0.187575 -8.135288 -2.134089 2.458748 0.000004 0.000000 0.000001 -0.327977 1.267163 2.474864 1.934975 0.521552 0.010005 -8.897239 -1.253455 -9.599084 -0.000001 0.000000 0.000000 
-216.483902 -397.047241 96.819672 3.140031 -1.071750 9.499769 1.457766 0.838998 -0.275290 -5.179080 0.383973 -0.081152 0.641351 0.383981 -0.081112 6.317714 0.280441 -0.089389 16.193670 -1.084460 0.264516 -5.957632 -2.070022 0.095149 -3.188735 -7.896528 1.419214 19.183611 -74.737603 27.234888 23.677097 -4.281455 6.775259 7.713614 2.573788 -2.820326 -2.822197 7.750205 -0.220562 35.009883 71.649613 -44.730318 28.635969 0.318235 -9.665476 1.166963 -2.715430 6.569629 -5.567168 3.270363 -2.741769 10.164661 -0.223155 0.156421 -8.142791 -2.141308 2.474668 0.000001 -0.000000 -0.000000 -0.316876 1.216720 2.489560 1.925063 0.557432 0.011780 -8.901827 -1.259183 -9.610813 0.000003 -0.000000 -0.000000 
-216.493561 -397.056610 96.817322 3.136262 -1.047679 9.494410 1.453664 0.823416 -0.270615 -5.180881 0.376861 -0.079846 0.639551 0.376870 -0.079808 6.316361 0.275231 -0.087880 16.204960 -1.086472 0.264186 -5.936674 -2.073558 0.094008 -3.177028 -7.884623 1.417598 19.221097 -74.745369 27.273574 23.680146 -4.281849 6.775668 7.715522 2.573132 -2.818817 -2.814696 7.754046 -0.219242 35.002141 71.653315 -44.726729 28.633341 0.319062 -9.667036 1.166532 -2.714435 6.567880 -5.571056 3.236247 -2.731942 10.180168 -0.217490 0.126787 -8.150463 -2.148132 2.489951 0.000003 -0.000000 0.000001 -0.305995 1.167466 2.503530 1.915399 0.592486 0.012269 -8.904758 -1.265050 -9.619314 0.000000 -0.000000 -0.000000 
-216.503067 -397.066010 96.815010 3.132595 -1.024592 9.488767 1.449622 0.808428 -0.266031 -5.182656 0.370017 -0.078550 0.637776 0.370024 -0.078512 6.315030 0.270221 -0.086399 16.216536 -1.088443 0.264010 -5.915200 -2.077071 0.093161 -3.165514 -7.872940 1.415994 19.258328 -74.752855 27.311848 23.683162 -4.282265 6.776036 7.717325 2.572205 -2.817276 -2.807066 7.757972 -0.217680 34.994249 71.656689 -44.722877 28.630664 0.320086 -9.669026 1.166113 -2.713400 6.566045 -5.574948 3.203186 -2.722668 10.195806 -0.211790 0.099185 -8.158360 -2.154431 2.504380 0.000000 -0.000000 -0.000000 -0.295415 1.119793 2.516532 1.906061 0.626439 0.011038 -8.905484 -1.271107 -9.623515 0.000002 0.000000 -0.000000 
-216.512405 -397.075470 96.812729 3.129055 -1.002735 9.482763 1.445654 0.794184 -0.261557 -5.184399 0.363506 -0.077269 0.636032 0.363514 -0.077231 6.313721 0.265459 -0.084957 16.228451 -1.090362 0.264018 -5.893083 -2.080558 0.092683 -3.154242 -7.861531 1.414401 19.295202 -74.759993 27.349594 23.686155 -4.282708 6.776350 7.718981 2.570931 -2.815699 -2.799272 7.762005 -0.215818 34.986210 71.659667 -44.718703 28.627944 0.321357 -9.671554 1.165705 -2.712314 6.564105 -5.578846 3.171444 -2.714074 10.211600 -0.206044 0.074120 -8.166534 -2.160067 2.517745 0.000002 -0.000000 0.000000 -0.285212 1.074095 2.528323 1.897128 0.659012 0.007653 -8.903444 -1.277405 -9.622335 0.000003 0.000000 -0.000000 
-216.521545 -397.084961 96.810501 3.125664 -0.982355 9.476333 1.441773 0.780834 -0.257218 -5.186105 0.357396 -0.076002 0.634327 0.357404 -0.075966 6.312442 0.260994 -0.083554 16.240786 -1.092217 0.264256 -5.870186 -2.084009 0.092647 -3.143259 -7.850451 1.412824 19.331655 -74.766720 27.386688 23.689119 -4.283185 6.776602 7.720462 2.569243 -2.814079 -2.791284 7.766162 -0.213592 34.977976 71.662167 -44.714168 28.625176 0.322921 -9.674719 1.165323 -2.711167 6.562032 -5.582752 3.141281 -2.706300 10.227583 -0.200242 0.052099 -8.175052 -2.164913 2.529831 0.000001 0.000000 -0.000001 -0.275468 1.030767 2.538655 1.888679 0.689930 0.001685 -8.898091 -1.283989 -9.614701 0.000003 -0.000000 -0.000000 
-216.530457 -397.094482 96.808304 3.122453 -0.963695 9.469400 1.437996 0.768523 -0.253034 -5.187764 0.351754 -0.074753 0.632666 0.351762 -0.074716 6.311194 0.256877 -0.082198 16.253603 -1.093998 0.264759 -5.846381 -2.087418 0.093128 -3.132615 -7.839758 1.411268 19.367614 -74.772970 27.423030 23.692043 -4.283700 6.776783 7.721746 2.567072 -2.812405 -2.783070 7.770471 -0.210943 34.969493 71.664093 -44.709172 28.622335 0.324829 -9.678631 1.164956 -2.709947 6.559808 -5.586667 3.112967 -2.699481 10.243784 -0.194369 0.033636 -8.183962 -2.168833 2.540424 -0.000002 0.000000 -0.000000 -0.266258 0.990203 2.547276 1.880792 0.718915 -0.007297 -8.888873 -1.290902 -9.599535 0.000002 -0.000000 0.000000 
